<?xml version="1.0" encoding="iso-8859-1"?>
<!-- Uploaded to: SVG Repo, www.svgrepo.com, Generator: SVG Repo Mixer Tools -->
<svg height="800px" width="800px" version="1.1" id="Layer_1" xmlns="http://www.w3.org/2000/svg" xmlns:xlink="http://www.w3.org/1999/xlink" 
	 viewBox="0 0 482.997 482.997" xml:space="preserve">
<path style="fill:#91ADB5;" d="M249.569,78.533V11.445c0-4.45-3.616-8.066-8.074-8.066c-4.45,0-8.066,3.616-8.066,8.066v74.665
	c0,4.443,3.616,8.058,8.066,8.058c0.504,0,1.008-0.039,1.489-0.142c17.298,0.788,31.145,15.061,31.145,32.555
	c0,17.975-14.635,32.626-32.634,32.626c-17.983,0-32.634-14.643-32.634-32.626h-16.148c0,26.892,21.898,48.766,48.774,48.766
	c26.9,0,48.774-21.874,48.774-48.766C290.269,102.455,272.616,82.4,249.569,78.533z"/>
<g>
	<path style="fill:#A8C6CC;" d="M241.495,77.588c0.504,0,1.008-0.055,1.489-0.15c2.276,0.102,4.466,0.449,6.585,0.985V61.944V11.445
		c0-4.45-3.616-8.066-8.074-8.066c-4.45,0-8.066,3.616-8.066,8.066v58.077C233.421,73.964,237.044,77.588,241.495,77.588z"/>
	<path style="fill:#A8C6CC;" d="M289.512,118.17c-3.45-19.81-18.96-35.501-38.66-39.353c13.43,4.041,23.268,16.447,23.268,31.185
		c0,2.851-0.41,5.624-1.118,8.271c0.709,2.67,1.118,5.435,1.118,8.318c0,14.769-9.901,27.278-23.418,31.264
		C270.545,154.033,286.125,138.177,289.512,118.17z"/>
	<path style="fill:#A8C6CC;" d="M208.861,126.582h-13.17c5.79,15.919,19.614,28.01,36.588,31.264
		C218.762,153.86,208.861,141.351,208.861,126.582z"/>
</g>
<path style="fill:#608387;" d="M272.096,23.544c0,2.977-2.41,5.388-5.372,5.388h-50.452c-2.985,0-5.38-2.41-5.38-5.388V5.38
	c0-2.977,2.395-5.38,5.38-5.38h50.452c2.962,0,5.372,2.402,5.372,5.38V23.544z"/>
<path id="SVGCleanerId_0" style="fill:#91ADB5;" d="M89.706,325.49c-2.93,0-5.845-1.126-8.082-3.356
	c-4.466-4.466-4.466-11.697,0-16.171l151.78-151.78c4.466-4.458,11.705-4.458,16.171,0l151.78,151.78
	c4.466,4.466,4.466,11.697,0,16.171c-4.466,4.458-11.697,4.458-16.163,0L241.495,178.436L97.788,322.135
	C95.559,324.372,92.629,325.49,89.706,325.49z"/>
<path style="fill:#870238;" d="M469.925,468.102c0,8.223-6.664,14.895-14.895,14.895H27.967c-8.231,0-14.903-6.672-14.903-14.895
	V305.451c0-8.231,6.672-14.903,14.903-14.903h427.071c8.231,0,14.895,6.672,14.895,14.903v162.651H469.925z"/>
<g>
	<path id="SVGCleanerId_0_1_" style="fill:#91ADB5;" d="M89.706,325.49c-2.93,0-5.845-1.126-8.082-3.356
		c-4.466-4.466-4.466-11.697,0-16.171l151.78-151.78c4.466-4.458,11.705-4.458,16.171,0l151.78,151.78
		c4.466,4.466,4.466,11.697,0,16.171c-4.466,4.458-11.697,4.458-16.163,0L241.495,178.436L97.788,322.135
		C95.559,324.372,92.629,325.49,89.706,325.49z"/>
</g>
<path style="fill:#A8C6CC;" d="M97.505,321.843l151.788-151.788c4.466-4.45,11.666-4.45,16.132-0.016l-15.848-15.856
	c-4.466-4.458-11.705-4.458-16.171,0L81.625,305.971c-4.466,4.466-4.466,11.697,0,16.171c2.237,2.229,5.152,3.356,8.082,3.356
	c2.592,0,5.12-1.032,7.231-2.788C97.166,322.434,97.252,322.087,97.505,321.843z"/>
<path style="fill:#D60949;" d="M469.925,468.102V305.451c0-8.231-6.664-14.903-14.895-14.903H313.758
	c-8.231,0-14.895,6.672-14.895,14.903v162.643c0,8.223,6.664,14.895,14.895,14.895h141.28
	C463.262,482.989,469.925,476.325,469.925,468.102z"/>
<g>
	<path style="fill:#B20040;" d="M313.758,290.556c-8.231,0-14.895,6.672-14.895,14.903v162.643c0,8.223,6.664,14.895,14.895,14.895
		h141.28c8.231,0,14.895-6.672,14.895-14.895"/>
	<path style="fill:#B20040;" d="M49.573,443.928c0,2.119-1.701,3.812-3.812,3.812l0,0c-2.103,0-3.812-1.701-3.812-3.812v-114.31
		c0-2.103,1.709-3.812,3.812-3.812l0,0c2.111,0,3.812,1.717,3.812,3.812V443.928z"/>
	<path style="fill:#B20040;" d="M77.536,443.928c0,2.119-1.709,3.812-3.812,3.812l0,0c-2.111,0-3.812-1.701-3.812-3.812v-114.31
		c0-2.103,1.701-3.812,3.812-3.812l0,0c2.103,0,3.812,1.717,3.812,3.812V443.928z"/>
	<path style="fill:#B20040;" d="M105.468,443.928c0,2.119-1.709,3.812-3.812,3.812l0,0c-2.111,0-3.812-1.701-3.812-3.812v-114.31
		c0-2.103,1.701-3.812,3.812-3.812l0,0c2.103,0,3.812,1.717,3.812,3.812V443.928z"/>
	<path style="fill:#B20040;" d="M133.423,443.928c0,2.119-1.709,3.812-3.805,3.812l0,0c-2.119,0-3.812-1.701-3.812-3.812v-114.31
		c0-2.103,1.694-3.812,3.812-3.812l0,0c2.095,0,3.805,1.717,3.805,3.812V443.928z"/>
	<path style="fill:#B20040;" d="M161.363,443.928c0,2.119-1.701,3.812-3.812,3.812l0,0c-2.103,0-3.812-1.701-3.812-3.812v-114.31
		c0-2.103,1.709-3.812,3.812-3.812l0,0c2.111,0,3.812,1.717,3.812,3.812V443.928z"/>
	<path style="fill:#B20040;" d="M189.302,443.928c0,2.119-1.694,3.812-3.805,3.812l0,0c-2.103,0-3.812-1.701-3.812-3.812v-114.31
		c0-2.103,1.709-3.812,3.812-3.812l0,0c2.119,0,3.805,1.717,3.805,3.812V443.928z"/>
	<path style="fill:#B20040;" d="M217.257,443.928c0,2.119-1.717,3.812-3.812,3.812l0,0c-2.119,0-3.812-1.701-3.812-3.812v-114.31
		c0-2.103,1.694-3.812,3.812-3.812l0,0c2.095,0,3.812,1.717,3.812,3.812V443.928z"/>
	<path style="fill:#B20040;" d="M245.205,443.928c0,2.119-1.701,3.812-3.812,3.812l0,0c-2.103,0-3.805-1.701-3.805-3.812v-114.31
		c0-2.103,1.701-3.812,3.805-3.812l0,0c2.111,0,3.812,1.717,3.812,3.812V443.928z"/>
	<path style="fill:#B20040;" d="M273.152,443.928c0,2.119-1.701,3.812-3.812,3.812l0,0c-2.103,0-3.812-1.701-3.812-3.812v-114.31
		c0-2.103,1.709-3.812,3.812-3.812l0,0c2.111,0,3.812,1.717,3.812,3.812V443.928z"/>
	<path style="fill:#B20040;" d="M346.518,408.072l29.357,29.349c4.687,4.703,12.335,4.703,17.03,0l29.357-29.349
		c4.703-4.71,4.703-12.327,0-17.03c-4.703-4.726-12.335-4.726-17.046,0l-11.792,11.784v-30.838c0-4.986-4.049-9.035-9.035-9.035
		s-9.035,4.057-9.035,9.035v30.838l-11.792-11.784c-2.355-2.371-5.451-3.545-8.531-3.545s-6.16,1.174-8.515,3.545
		C341.815,395.745,341.815,403.369,346.518,408.072z"/>
</g>
<path style="fill:#870238;" d="M375.875,437.421c4.687,4.703,12.335,4.703,17.03,0l26.348-26.333l-17.046-17.046l-8.783,8.783
	v-17.558l-17.164-17.172c-0.567,1.182-0.906,2.489-0.906,3.891v30.838l-11.792-11.784c-2.355-2.371-5.451-3.545-8.531-3.545
	s-6.16,1.174-8.515,3.545c-4.703,4.703-4.703,12.32,0,17.03L375.875,437.421z"/>
<path style="fill:#B20040;" d="M359.916,350.665h48.939c5.002,0,9.035-4.049,9.035-9.027c0-5.01-4.033-9.051-9.035-9.051h-48.939
	c-4.986,0-9.035,4.049-9.035,9.051C350.882,346.624,354.93,350.665,359.916,350.665z"/>
</svg>