<?xml version="1.0" encoding="utf-8"?>
<!-- Uploaded to: SVG Repo, www.svgrepo.com, Generator: SVG Repo Mixer Tools -->
<svg width="800px" height="800px" viewBox="0 0 1024 1024" class="icon"  version="1.1" xmlns="http://www.w3.org/2000/svg"><path d="M825.493209 683.964612a8.209513 8.209513 0 0 1-4.07404-1.06996c-2.522853-1.439583-3.482234-3.723871-3.819092-4.954581-0.333787-1.23071-0.687027-3.658342 0.752556-6.181196 31.938055-56.19697 48.814757-120.319836 48.814756-185.479898 0-65.097605-16.89206-129.266546-48.847521-185.574096-2.238213-3.929672-0.864159-8.94671 3.082919-11.201305a7.924872 7.924872 0 0 1 3.978818-1.053578c2.317052 0 5.431712 1.086342 7.189723 4.169261 33.332587 58.690131 50.957749 125.672709 50.957749 193.660742 0 67.892812-17.60878 134.809861-50.924985 193.516374-1.740605 3.065513-4.810213 4.168237-7.110883 4.168237zM718.05385 640.310237a8.167533 8.167533 0 0 1-4.410898-1.308525c-3.769946-2.427632-4.87267-7.542963-2.427632-11.378438 27.085862-42.054042 41.419233-90.949686 41.419233-141.344297 0-50.476523-14.366135-99.401859-41.546195-141.488666-2.412274-3.773017-1.308525-8.867871 2.493161-11.329291 1.34129-0.864159 2.810565-1.312621 4.394516-1.312621a8.127602 8.127602 0 0 1 6.884605 3.756636c28.872542 44.818532 44.134577 96.813477 44.134577 150.372918 0 53.526677-15.22927 105.488857-44.052667 150.295103-1.50204 2.346745-4.07404 3.737181-6.8887 3.737181zM608.441807 596.019006c-1.390436 0-3.452541-0.350169-5.448094-2.044699-3.291791-2.859712-3.691107-8.053882-0.736174-11.439871 23.122402-26.732622 35.84213-60.892508 35.84213-96.254435s-12.719727-69.521814-35.825748-96.221672c-2.938551-3.403395-2.555618-8.612923 0.86416-11.584238 1.868591-1.630025 3.929672-1.983266 5.321132-1.983266 1.406818 0 4.07404 0.382933 6.230342 2.859712 25.645256 29.64148 39.772825 67.620459 39.772825 106.92844 0 39.324364-14.126546 77.28696-39.789207 106.879293-2.13992 2.494185-4.823524 2.860736-6.231366 2.860736zM328.338522 912.266466c-47.456061 0-91.378694-5.130689-123.674084-14.44395-57.057034-16.555202-63.658022-41.081351-63.658023-58.098325V179.619179c0-29.753084 34.62473-46.03286 63.674405-54.439983 32.419281-9.313261 76.328603-14.44395 123.595245-14.44395 74.476395 0 200.528965 14.509479 200.528965 68.883933v663.812501c0 54.34169-126.006495 68.834787-200.466508 68.834786z" fill="#FFFFFF" /><path d="M825.493209 700.326299a24.55277 24.55277 0 0 0 21.349033-12.464779c34.703569-61.163838 53.048523-130.830019 53.048522-201.582543s-18.344953-140.545667-53.114051-201.776057c-6.711568-11.761371-21.731966-15.917321-33.489241-9.205753-11.761371 6.711568-15.917321 21.666437-9.205753 33.493336 30.55069 53.814389 46.722959 115.171741 46.722959 177.488474 0 62.251204-16.10674 123.608556-46.65743 177.360487-6.711568 11.761371-2.558689 26.781768 9.201657 33.493337a24.498504 24.498504 0 0 0 12.144304 3.193498zM718.05385 656.672949c8.052858 0 15.978754-3.962436 20.645624-11.247381 30.55069-47.488825 46.65743-102.517542 46.65743-159.146591 0-56.690483-16.172269-111.784728-46.722959-159.209049-7.349449-11.443966-22.560289-14.702993-33.937703-7.353544-11.374342 7.353544-14.699922 22.497832-7.349449 33.941798 25.501912 39.4974 38.925048 85.386917 38.925049 132.620795s-13.423137 93.056842-38.85952 132.558337c-7.288016 11.439871-4.027965 26.588254 7.411906 33.937703a24.499528 24.499528 0 0 0 13.229622 3.897932zM608.441807 612.380693c6.900987 0 13.740541-2.876094 18.5999-8.501319 28.246948-32.596413 43.781336-74.394484 43.781337-117.600397s-15.534388-85.007055-43.781337-117.665926c-8.884253-10.226567-24.353112-11.378438-34.641112-2.49316-10.226567 8.884253-11.378438 24.353112-2.493161 34.641112 20.517638 23.71216 31.830547 54.073432 31.830547 85.517974s-11.312909 61.805814-31.830547 85.517974c-8.884253 10.226567-7.732382 25.756859 2.493161 34.641112 4.663798 3.962436 10.354552 5.94263 16.041212 5.94263zM328.276065 94.373558c-48.895644 0-94.530213 5.431712-128.147439 15.085927-62.316733 18.05417-75.483898 48.110324-75.483898 70.159694v660.103988c0 25.691331 13.168189 55.732126 75.483898 73.81906 33.682756 9.715648 79.250772 15.085926 128.208872 15.085927 36.241445 0 216.829219-4.027965 216.829219-85.196474V179.619179c0-81.155199-180.652279-85.24562-216.890652-85.245621z" fill="#27323A" /><path d="M496.081655 843.43168c-5.30475 13.165118-66.024221 36.110388-167.743133 36.110387-43.781336 0-85.513878-4.793831-114.661846-13.168189-18.152463-5.30475-39.945862-14.189003-39.945862-26.650711V179.619179c0-3.707489 9.781177-14.25146 40.011391-23.007727 29.143872-8.308829 70.880509-13.102661 114.53386-13.102661 101.718911 0 162.435311 22.946294 167.80559 35.789912v664.132977z" fill="#F4CE73" /><path d="M446.164174 519.195866H223.647272c-9.012239 0-16.361687-7.288016-16.361688-16.361687V207.421761c0-9.012239 7.349449-16.361687 16.361688-16.361688h222.515878c9.077767 0 16.361687 7.349449 16.361687 16.361688v295.412418a16.309469 16.309469 0 0 1-16.360663 16.361687z" fill="#27323A" /><path d="M240.009983 223.783448h189.792503v262.688019H240.009983z" fill="#79CCBF" /><path d="M264.746028 638.775433h-51.513718c-5.435807 0-9.781177-4.407826-9.781177-9.840562v-51.452285c0-5.431712 4.345369-9.843634 9.781177-9.843634h51.513718c5.431712 0 9.778105 4.410898 9.778105 9.843634v51.452285c0 5.432736-4.346393 9.840562-9.778105 9.840562z" fill="#27323A" /><path d="M223.071848 587.261715h31.830547v31.893004h-31.830547z" fill="#FFFFFF" /><path d="M453.069256 638.775433h-51.517814c-5.431712 0-9.778105-4.407826-9.778105-9.840562v-51.452285c0-5.431712 4.345369-9.843634 9.778105-9.843634h51.517814c5.431712 0 9.778105 4.410898 9.778105 9.843634v51.452285c-0.001024 5.432736-4.346393 9.840562-9.778105 9.840562z" fill="#27323A" /><path d="M411.395076 587.261715h31.830547v31.893004h-31.830547z" fill="#FFFFFF" /><path d="M358.889212 638.775433h-51.448189c-5.435807 0-9.843634-4.407826-9.843634-9.840562v-51.452285c0-5.431712 4.407826-9.843634 9.843634-9.843634h51.448189c5.431712 0 9.810869 4.410898 9.81087 9.843634v51.452285c0 5.432736-4.378134 9.840562-9.81087 9.840562z" fill="#27323A" /><path d="M317.219127 587.261715h31.893004v31.893004h-31.893004z" fill="#FFFFFF" /><path d="M264.746028 728.897819h-51.513718c-5.435807 0-9.781177-4.410898-9.781177-9.843633v-51.452285c0-5.431712 4.345369-9.843634 9.781177-9.843634h51.513718c5.431712 0 9.778105 4.410898 9.778105 9.843634v51.452285c0 5.432736-4.346393 9.843634-9.778105 9.843633z" fill="#27323A" /><path d="M223.071848 677.380005h31.830547v31.893004h-31.830547z" fill="#FFFFFF" /><path d="M453.069256 728.897819h-51.517814c-5.431712 0-9.778105-4.410898-9.778105-9.843633v-51.452285c0-5.431712 4.345369-9.843634 9.778105-9.843634h51.517814c5.431712 0 9.778105 4.410898 9.778105 9.843634v51.452285c-0.001024 5.432736-4.346393 9.843634-9.778105 9.843633z" fill="#27323A" /><path d="M411.395076 677.380005h31.830547v31.893004h-31.830547z" fill="#FFFFFF" /><path d="M358.889212 728.897819h-51.448189c-5.435807 0-9.843634-4.410898-9.843634-9.843633v-51.452285c0-5.431712 4.407826-9.843634 9.843634-9.843634h51.448189c5.431712 0 9.810869 4.410898 9.81087 9.843634v51.452285c0 5.432736-4.378134 9.843634-9.81087 9.843633z" fill="#27323A" /><path d="M317.219127 677.380005h31.893004v31.893004h-31.893004z" fill="#FFFFFF" /><path d="M264.746028 819.01611h-51.513718c-5.435807 0-9.781177-4.410898-9.781177-9.843633v-51.452286c0-5.431712 4.345369-9.843634 9.781177-9.843633h51.513718c5.431712 0 9.778105 4.410898 9.778105 9.843633v51.452286c0 5.432736-4.346393 9.843634-9.778105 9.843633z" fill="#27323A" /><path d="M223.071848 767.49932h31.830547v31.896076h-31.830547z" fill="#FFFFFF" /><path d="M453.069256 819.01611h-51.517814c-5.431712 0-9.778105-4.410898-9.778105-9.843633v-51.452286c0-5.431712 4.345369-9.843634 9.778105-9.843633h51.517814c5.431712 0 9.778105 4.410898 9.778105 9.843633v51.452286c-0.001024 5.432736-4.346393 9.843634-9.778105 9.843633z" fill="#27323A" /><path d="M411.395076 767.49932h31.830547v31.896076h-31.830547z" fill="#FFFFFF" /><path d="M358.889212 819.01611h-51.448189c-5.435807 0-9.843634-4.410898-9.843634-9.843633v-51.452286c0-5.431712 4.407826-9.843634 9.843634-9.843633h51.448189c5.431712 0 9.810869 4.410898 9.81087 9.843633v51.452286c0 5.432736-4.378134 9.843634-9.81087 9.843633z" fill="#27323A" /><path d="M317.219127 767.49932h31.893004v31.896076h-31.893004z" fill="#FFFFFF" /></svg>