<?xml version="1.0" ?>
<!-- Uploaded to: SVG Repo, www.svgrepo.com, Generator: SVG Repo Mixer Tools -->
<svg width="800px" height="800px" viewBox="0 0 512 512" id="Layer_1" version="1.1" xml:space="preserve" xmlns="http://www.w3.org/2000/svg" xmlns:xlink="http://www.w3.org/1999/xlink">
<style type="text/css">
	.st0{fill:#3B4652;}
	.st1{fill:#2B79C2;}
</style>
<g>
<path class="st1" d="M139.7,206.7v137.1l32.9,36.3H256v-141c0-17.9-14.5-32.4-32.4-32.4H139.7z"/>
<path class="st0" d="M270,239.1v92.2c3.1-2.1,6.8-3.3,10.9-3.3V181.2c-10.4,0-18.9-8.2-19.4-18.5h-34.1c-0.5,10.3-9,18.5-19.4,18.5   h0v11.5h0h15.7C249.2,192.7,270,213.5,270,239.1z"/>
<path class="st1" d="M308.9,364.7V129H179.8v63.8h14.1v-25.5h14c2.9,0,5.3-2.3,5.4-5.1l0.6-13.4h60.8l0.6,13.4   c0.1,2.9,2.5,5.1,5.4,5.1h14v174.8h-14c-1.1,0-2.1,0.3-3,0.9l-7.9,5.3v32h23.5C302,380.1,308.9,373.2,308.9,364.7z"/>
<path class="st0" d="M478.2,200.3H347.4l-24.5-30.6v191l24.5-22.4h83.1C399.5,403.6,333,448.9,256,448.9   c-106.4,0-192.9-86.5-192.9-192.9S149.6,63.1,256,63.1c39.4,0,76.1,11.9,106.7,32.3L341,117.2l64.7,17.3l0,0l40.5,10.8l-7.3-27.1   l0,0l-21-78.2l-29.3,29.3C351.3,42.7,305.5,27,256,27C129.5,27,27,129.5,27,256s102.5,229,229,229c97.5,0,180.7-60.9,213.8-146.8   C479.6,312.7,485,285,485,256C485,236.8,482.6,218.1,478.2,200.3z"/>
</g>
</svg>