<?xml version="1.0" encoding="iso-8859-1"?>
<!-- Uploaded to: SVG Repo, www.svgrepo.com, Generator: SVG Repo Mixer Tools -->
<svg version="1.1" id="Layer_1" xmlns="http://www.w3.org/2000/svg" xmlns:xlink="http://www.w3.org/1999/xlink" 
	 viewBox="0 0 512 512" xml:space="preserve">
<path style="fill:#6AC8B7;" d="M470.313,383.733H42.756c-18.891,0-34.205-15.314-34.205-34.205V41.687
	c0-18.891,15.314-34.205,34.205-34.205h427.557c18.891,0,34.205,15.314,34.205,34.205v307.841
	C504.518,368.419,489.204,383.733,470.313,383.733z"/>
<path style="fill:#2DB59F;" d="M34.205,349.528V41.687c0-18.891,15.314-34.205,34.205-34.205H42.756
	c-18.891,0-34.205,15.314-34.205,34.205v307.841c0,18.891,15.314,34.205,34.205,34.205h25.653
	C49.519,383.733,34.205,368.419,34.205,349.528z"/>
<rect x="8.551" y="50.238" style="fill:#EBEBEC;" width="495.967" height="290.739"/>
<rect x="8.551" y="50.238" style="fill:#D7D8D9;" width="25.653" height="290.739"/>
<polygon style="fill:#6AC8B7;" points="316.392,477.795 196.676,477.795 213.779,383.733 299.29,383.733 "/>
<polygon style="fill:#2DB59F;" points="299.29,383.733 213.779,383.733 209.114,409.386 303.955,409.386 "/>
<path style="fill:#6AC8B7;" d="M350.597,503.449H162.472v-17.102c0-9.446,7.656-17.102,17.102-17.102h153.921
	c9.446,0,17.102,7.656,17.102,17.102V503.449z"/>
<path style="fill:#2DB59F;" d="M205.228,469.244h-25.653c-9.446,0-17.102,7.658-17.102,17.102v17.102h25.653v-17.102
	C188.125,476.902,195.782,469.244,205.228,469.244z"/>
<path style="fill:#E5563C;" d="M59.858,195.608c0-37.781,30.628-68.409,68.409-68.409s68.409,30.628,68.409,68.409
	s-68.409,119.716-68.409,119.716S59.858,233.389,59.858,195.608z"/>
<path style="fill:#CF442B;" d="M85.511,204.159c0-37.781,30.628-68.409,68.409-68.409c2.842,0,5.637,0.193,8.39,0.53
	c-10.028-5.767-21.645-9.081-34.043-9.081c-37.781,0-68.409,30.628-68.409,68.409s68.409,119.716,68.409,119.716
	s3.773-4.52,9.547-11.924C117.591,276.607,85.511,230.032,85.511,204.159z"/>
<path style="fill:#74DBC9;" d="M350.597,503.449H162.472v-17.102c0-9.446,7.656-17.102,17.102-17.102h153.921
	c9.446,0,17.102,7.656,17.102,17.102V503.449z"/>
<path style="fill:#6AC8B7;" d="M205.228,469.244h-25.653c-9.446,0-17.102,7.658-17.102,17.102v17.102h25.653v-17.102
	C188.125,476.902,195.782,469.244,205.228,469.244z"/>
<circle style="fill:#D7D8D9;" cx="128.267" cy="195.608" r="34.205"/>
<circle style="fill:#EBEBEC;" cx="128.267" cy="195.608" r="17.102"/>
<rect x="393.353" y="92.994" style="fill:#FDD042;" width="51.307" height="51.307"/>
<path d="M470.313,0H42.756C19.475,0,0,18.406,0,41.687v307.841c0,23.28,19.475,42.756,42.756,42.756h42.756
	c4.427,0,8.017-3.588,8.017-8.017s-3.588-8.017-8.017-8.017H42.756c-14.44,0-26.722-12.282-26.722-26.722l0,0h479.933l0,0
	c0,14.441-11.213,26.722-25.653,26.722H119.716c-4.427,0-8.017,3.588-8.017,8.017s3.589,8.017,8.017,8.017h84.458l-12.632,69.478
	h-11.967c-13.851,0-25.653,10.734-25.653,24.585v17.102c0,4.428,4.124,8.551,8.551,8.551h188.125c4.428,0,7.482-4.123,7.482-8.551
	v-17.102c0-13.851-10.734-24.585-24.585-24.585h-11.966l-12.632-69.478h161.417c23.28,0,41.687-19.475,41.687-42.756V152.855
	c0-4.428-3.588-8.017-8.017-8.017s-8.017,3.588-8.017,8.017v180.64H16.033V58.789h479.933v59.859c0,4.428,3.588,8.017,8.017,8.017
	s8.017-3.588,8.017-8.017V41.687C512,18.406,493.594,0,470.313,0z M342.046,486.347v9.62H169.954v-9.62
	c0-5.01,4.61-8.551,9.62-8.551h153.921C338.505,477.795,342.046,481.337,342.046,486.347z M305.232,461.762h-97.395l12.632-69.478
	h72.13L305.232,461.762z M16.033,42.756v-1.069c0-14.441,12.283-25.653,26.722-25.653h427.557c14.441,0,25.653,11.213,25.653,25.653
	v1.069H16.033z"/>
<path d="M265.086,152.852h128.267h51.307c4.428,0,7.482-4.123,7.482-8.551V92.994c0-4.428-3.054-7.482-7.482-7.482h-6.299
	l3.416-3.683c3.131-3.132,3.131-8.341,0-11.471c-3.132-3.13-8.207-3.196-11.338-0.067L419.006,81.69l-11.433-11.451
	c-3.132-3.13-8.207-3.138-11.338-0.009c-3.131,3.132-3.131,8.47,0,11.602l3.416,3.679h-6.299c-4.428,0-8.551,3.054-8.551,7.482
	v43.825H265.086c-27.995,0-50.772,22.777-50.772,50.772s22.777,50.772,50.772,50.772h119.716c19.156,0,34.739,15.583,34.739,34.739
	c0,19.156-15.583,34.739-34.739,34.739H144.938c6.516-8.551,15.301-20.371,24.168-33.439c23.614-34.804,35.588-61.358,35.588-78.661
	c0-42.141-34.285-76.493-76.426-76.493S51.841,153.5,51.841,195.641c0,17.303,11.974,43.707,35.588,78.51
	c16.968,25.008,33.648,45.344,34.65,46.545c1.727,1.727,3.657,3.179,6.188,3.179h256.534c27.995,0,50.772-22.777,50.772-50.772
	c0-27.995-22.777-50.772-50.772-50.772H265.086c-19.155,0-34.739-15.583-34.739-34.739S245.931,152.852,265.086,152.852z
	 M400.835,127.198h9.62v8.551c0,0.181,0.549,0,0.561,1.069h-10.181V127.198z M436.109,110.657c0-0.012,0.181,0.508,0,0.508h-9.62
	v-9.62h9.62V110.657z M410.455,111.165h-9.62v-9.62h9.62V111.165z M426.996,136.818c0.012-1.069-0.508-0.888-0.508-1.069v-8.551
	h9.62c0.181,0,0-0.549,0-0.561v10.181H426.996z M67.875,195.608c0-33.3,27.092-60.392,60.392-60.392s60.392,27.092,60.392,60.392
	c0,25.814-39.164,80.346-60.392,107.013C107.039,275.953,67.875,221.421,67.875,195.608z"/>
<path d="M170.489,195.608c0-23.28-18.941-42.221-42.221-42.221s-42.221,18.941-42.221,42.221s18.941,42.221,42.221,42.221
	S170.489,218.888,170.489,195.608z M102.079,195.608c0-14.441,11.748-26.188,26.188-26.188s26.188,11.747,26.188,26.188
	c0,14.441-11.748,26.188-26.188,26.188S102.079,210.048,102.079,195.608z"/>
</svg>